<svg xmlns="http://www.w3.org/2000/svg" xmlns:xlink="http://www.w3.org/1999/xlink" version="1.1" x="0px" y="0px" viewBox="0 0 100 125" enable-background="new 0 0 100 100" xml:space="preserve"><path fill="#000000" d="M75.125,51.561H30.486c-1.985-5.779-2.502-27.01-1.696-44.96c0.118-2.604-1.899-4.811-4.502-4.927  c-2.618-0.155-4.811,1.896-4.928,4.501c-0.77,17.096-1.19,46.683,4.646,52.787c0.294,0.311,0.612,0.577,0.943,0.817l-2.891,36.798  c-0.087,1.111,0.744,2.086,1.858,2.175c0.054,0.005,0.108,0.006,0.16,0.006c1.046,0,1.931-0.805,2.014-1.864l1.443-18.362h43.278  L70.599,96.71c-0.014,1.117,0.882,2.033,1.998,2.048c0.007,0,0.017,0,0.026,0c1.104,0,2.008-0.89,2.02-2L75.069,61h0.056  c2.607,0,4.721-2.112,4.721-4.72C79.846,53.674,77.732,51.561,75.125,51.561z M70.863,74.485H27.853L28.913,61h42.11L70.863,74.485z  "/><text x="0" y="115" fill="#000000" font-size="5px" font-weight="bold" font-family="'Helvetica Neue', Helvetica, Arial-Unicode, Arial, Sans-serif">Created by iconoci</text><text x="0" y="120" fill="#000000" font-size="5px" font-weight="bold" font-family="'Helvetica Neue', Helvetica, Arial-Unicode, Arial, Sans-serif">from the Noun Project</text></svg>