<svg xmlns="http://www.w3.org/2000/svg" xmlns:xlink="http://www.w3.org/1999/xlink" version="1.1" x="0px" y="0px" viewBox="0 0 100 125" enable-background="new 0 0 100 100" xml:space="preserve"><path d="M51.633,75.687c0,0.037,0,0.078,0,0.122c0.001,0.203,0.001,0.687-0.021,1.289c-7.524,3.481-15.979,5.436-24.918,5.436  c-8.912,0-17.343-1.943-24.85-5.404c-0.024-0.621-0.024-1.121-0.023-1.325c-0.001-0.223,0.001-0.354,0.001-0.354l0.005,0.001  c-0.018-0.309-0.028-0.649-0.026-1.009c-0.031-2.741,0.627-6.918,4.74-7.93c6.231-1.535,11.575-4.127,11.613-4.146  c0.509-0.841,0.776-2.053,0.91-2.918c-1.59-2.085-2.329-4.585-2.657-6.732c-0.585-0.047-1.359-0.881-2.189-3.849  c-1.066-3.81-0.07-4.575,0.901-4.575c0.064,0,0.129,0.003,0.192,0.009c-0.751-2.134-0.767-4.233-0.263-6.176  c0.53-2.287,1.751-4.118,3.122-5.535c0.866-0.932,1.847-1.747,2.887-2.414c0.846-0.595,1.783-1.104,2.805-1.454l0.001,0l0,0  c0.799-0.273,1.65-0.449,2.551-0.492c0.378-0.033,0.743-0.049,1.095-0.049c2.248,0,4,0.633,5.309,1.417  c2.26,1.262,3.118,2.931,3.118,2.931s5.688,0.404,3.198,12.462l0,0c0.765,0.268,1.305,1.33,0.418,4.499  c-0.856,3.061-1.651,3.852-2.243,3.852c-0.162,0-0.309-0.059-0.437-0.148c-0.351,1.994-1.067,4.231-2.479,6.138  c0.141,0.959,0.453,2.424,1.101,3.29c0,0,5.187,2.348,11.44,3.888c4.103,1.011,4.768,5.17,4.74,7.911  C51.678,74.885,51.66,75.313,51.633,75.687z M76.456,67.354c0.023-2.322-0.54-5.845-4.016-6.702  c-5.297-1.305-9.691-3.294-9.691-3.294c-0.549-0.733-0.813-1.974-0.933-2.787c1.196-1.615,1.803-3.511,2.1-5.2  c0.506,0.348,1.346,0.166,2.27-3.138c0.751-2.684,0.294-3.584-0.354-3.811h0c2.109-10.215-2.709-10.557-2.709-10.557  s-0.727-1.414-2.641-2.483c-1.283-0.768-3.069-1.366-5.425-1.159c-0.763,0.036-1.484,0.185-2.161,0.417l0,0l-0.001,0  c-0.866,0.296-1.659,0.728-2.376,1.232c-0.881,0.565-1.712,1.256-2.446,2.045c-1.161,1.2-2.196,2.752-2.645,4.689  c-0.427,1.645-0.413,3.424,0.223,5.231c-0.866-0.082-1.889,0.426-0.926,3.867c0.704,2.515,1.359,3.221,1.854,3.261  c0.278,1.819,0.904,3.937,2.251,5.703c-0.114,0.733-0.34,1.76-0.771,2.472c-0.032,0.016-4.56,2.211-9.838,3.512  c-0.215,0.053-0.418,0.116-0.612,0.189c1.797,0.741,5.604,2.211,9.916,3.273c4.2,1.035,6.602,4.71,6.618,10.098  c0.382,0.009,0.766,0.014,1.15,0.014c7.572,0,14.735-1.656,21.109-4.605c0.019-0.51,0.019-0.92,0.018-1.092c0-0.038,0-0.072,0-0.104  C76.443,68.108,76.458,67.745,76.456,67.354z M98.2,61.44c0.02-2.007-0.467-5.053-3.472-5.794c-4.579-1.128-8.378-2.848-8.378-2.848  c-0.475-0.634-0.703-1.707-0.807-2.409c1.034-1.397,1.559-3.035,1.816-4.495c0.437,0.301,1.164,0.143,1.963-2.712  c0.649-2.321,0.254-3.099-0.306-3.295h0c1.823-8.831-2.342-9.127-2.342-9.127s-0.628-1.222-2.284-2.146  c-1.109-0.664-2.653-1.181-4.69-1.002c-0.66,0.032-1.283,0.16-1.868,0.36l0,0l-0.001,0c-0.749,0.256-1.435,0.629-2.054,1.065  c-0.762,0.488-1.48,1.085-2.115,1.768c-1.004,1.038-1.898,2.379-2.286,4.054c-0.369,1.422-0.357,2.96,0.193,4.523  c-0.749-0.071-1.633,0.368-0.8,3.343c0.608,2.174,1.174,2.784,1.603,2.819c0.24,1.572,0.781,3.404,1.946,4.93  c-0.098,0.633-0.294,1.521-0.667,2.137c-0.028,0.013-3.942,1.912-8.505,3.036c-0.186,0.046-0.362,0.1-0.529,0.163  c1.554,0.641,4.845,1.911,8.572,2.829c3.631,0.895,5.708,4.072,5.721,8.729c0.331,0.007,0.662,0.012,0.994,0.012  c6.546,0,12.739-1.432,18.249-3.981c0.016-0.441,0.017-0.795,0.016-0.944c0-0.033,0-0.062,0-0.089  C98.189,62.092,98.202,61.779,98.2,61.44z"/><text x="0" y="115" fill="#000000" font-size="5px" font-weight="bold" font-family="'Helvetica Neue', Helvetica, Arial-Unicode, Arial, Sans-serif">Created by Gregor Črešnar</text><text x="0" y="120" fill="#000000" font-size="5px" font-weight="bold" font-family="'Helvetica Neue', Helvetica, Arial-Unicode, Arial, Sans-serif">from the Noun Project</text></svg>